# xmcd
#
# Track frame offsets: 
#        150
#        17747
#        40460
#        57206
#        71596
#        91151
#        105219
#        118911
#        126680
#        145294
#        158950
#
# Disc length: 2348 seconds
#
# Revision: 0
# Processed by: cddbd v1.5.2PL0 Copyright (c) Steve Scherf et al.
# Submitted via: ExactAudioCopy v1.0b3
#
DISCID=9b092a0b
DTITLE=Stephen Dale Petit - Cracking The Code
DYEAR=2013
DGENRE=Blues
TTITLE0=Holla
TTITLE1=Wonder
TTITLE2=Get You Off
TTITLE3=Hard to Love You
TTITLE4=Approximately Perfect Heartbreak
TTITLE5=Muzzle
TTITLE6=Riot City
TTITLE7=Shotgun Venus
TTITLE8=Slideway
TTITLE9=My Friend Bob
TTITLE10=Hubert's Blues
EXTD=
EXTT0=
EXTT1=
EXTT2=
EXTT3=
EXTT4=
EXTT5=
EXTT6=
EXTT7=
EXTT8=
EXTT9=
EXTT10=
PLAYORDER=
